<?xml version="1.0" encoding="utf-8"?>
<!-- Generator: Adobe Illustrator 24.3.0, SVG Export Plug-In . SVG Version: 6.00 Build 0)  -->
<svg version="1.0" id="Calque_1" xmlns="http://www.w3.org/2000/svg" xmlns:xlink="http://www.w3.org/1999/xlink" x="0px" y="0px"
	 viewBox="0 0 224.331 45" style="enable-background:new 0 0 224.331 45;" xml:space="preserve">
<g>
	<rect x="10.699" y="15.228" style="fill:#00B9F2;" width="7.578" height="7.578"/>
	<rect x="12.068" y="26.062" style="fill:#00B5AA;" width="6.632" height="6.632"/>
	<rect x="2.988" y="13.813" style="fill:#7EC67F;" width="5.291" height="5.291"/>
	<rect y="21.285" style="fill:#0096D5;" width="2.43" height="2.43"/>
	<rect x="8.994" y="6.478" style="fill:#6DCFF6;" width="5.495" height="5.495"/>
	<rect x="5.087" y="22.682" style="fill:#0086CC;" width="4.324" height="4.324"/>
	<rect x="16.846" y="1.692" style="fill:#60C08E;" width="5.983" height="5.983"/>
	<path style="fill:#BCBCBC;" d="M59.845,4.836c-1.465-1.108-3.188-1.809-4.993-2.057V2.086C54.852,0.934,53.918,0,52.766,0h-9.484
		c-1.152,0-2.086,0.934-2.086,2.086v0.59H29.74V7.27h-4.594v4.594h4.594v0.975v3.619h4.594v4.594h-3.619H29.74v-4.594h-4.594v4.594
		h-4.594v4.594h4.594v0.975v3.619h-4.594v4.594H20.55h-4.026v4.597h4.026h0.002v4.071c0.886,0.619,1.942,1.083,3.027,1.355
		c2.956,0.743,5.817-1.525,5.827-4.573l0.023-6.962c0.002-0.633,0.587-1.097,1.206-0.967c0.438,0.092,0.891,0.14,1.357,0.14
		c3.059,0,5.632-2.077,6.387-4.898c0.164-0.613,0.73-1.032,1.364-1.029l2.87,0.013c0.628,0.003,1.187,0.418,1.35,1.025
		c0.758,2.816,3.329,4.889,6.384,4.889c0.671,0,1.318-0.1,1.927-0.286c0.647-0.197,1.3,0.279,1.295,0.955l-0.06,6.916
		c-0.03,3.392,3.381,5.746,6.538,4.503c3.289-1.294,6.661-4.564,8.062-9.399C70.762,26.031,70.884,13.183,59.845,4.836z
		 M53.594,9.225c1.354,0,2.451,1.097,2.451,2.451c0,1.354-1.097,2.451-2.451,2.451c-1.354,0-2.451-1.097-2.451-2.451
		C51.143,10.323,52.24,9.225,53.594,9.225z M49.193,18.528c-1.354,0-2.451-1.097-2.451-2.451c0-1.354,1.097-2.451,2.451-2.451
		c1.354,0,2.451,1.097,2.451,2.451C51.644,17.431,50.547,18.528,49.193,18.528z M53.594,22.929c-1.354,0-2.451-1.097-2.451-2.451
		c0-1.354,1.097-2.451,2.451-2.451c1.354,0,2.451,1.097,2.451,2.451C56.045,21.831,54.947,22.929,53.594,22.929z M57.995,18.528
		c-1.354,0-2.451-1.097-2.451-2.451c0-1.354,1.097-2.451,2.451-2.451c1.354,0,2.451,1.097,2.451,2.451
		C60.446,17.431,59.348,18.528,57.995,18.528z"/>
	<rect x="19.187" y="9.905" style="fill:#0072BC;" width="5.076" height="5.076"/>
</g>
<g>
	<path style="fill:#4CD43B;" d="M87.916,20.244c-0.224-0.412-0.545-0.728-0.964-0.946c-0.419-0.218-0.911-0.327-1.478-0.327
		c-0.979,0-1.764,0.321-2.354,0.964c-0.59,0.644-0.885,1.501-0.885,2.574c0,1.145,0.311,2.038,0.93,2.681
		c0.619,0.644,1.471,0.965,2.557,0.965c0.743,0,1.371-0.188,1.884-0.566c0.514-0.377,0.888-0.92,1.124-1.628h-3.84V21.73h6.582
		v2.813c-0.225,0.755-0.604,1.457-1.142,2.105c-0.536,0.648-1.218,1.174-2.043,1.575c-0.826,0.4-1.758,0.602-2.796,0.602
		c-1.227,0-2.32-0.269-3.282-0.806c-0.961-0.536-1.71-1.282-2.247-2.238c-0.537-0.955-0.805-2.046-0.805-3.273
		c0-1.227,0.268-2.32,0.805-3.281c0.537-0.962,1.283-1.711,2.238-2.247c0.956-0.537,2.047-0.806,3.273-0.806
		c1.486,0,2.739,0.36,3.76,1.079c1.021,0.72,1.695,1.717,2.026,2.99H87.916z"/>
	<path style="fill:#4CD43B;" d="M100.885,26.542H96.25l-0.743,2.194h-3.167l4.494-12.421h3.503l4.494,12.421h-3.202L100.885,26.542z
		 M100.107,24.208l-1.54-4.548l-1.521,4.548H100.107z"/>
	<path style="fill:#4CD43B;" d="M120.259,16.316v12.421h-3.025v-7.449l-2.778,7.449h-2.441l-2.795-7.467v7.467h-3.026V16.316h3.574
		l3.485,8.6l3.45-8.6H120.259z"/>
	<path style="fill:#4CD43B;" d="M125.462,16.316v12.421h-3.026V16.316H125.462z"/>
	<path style="fill:#4CD43B;" d="M138.766,28.737h-3.025l-5.06-7.661v7.661h-3.026V16.316h3.026l5.06,7.696v-7.696h3.025V28.737z"/>
	<path style="fill:#4CD43B;" d="M149.206,20.244c-0.224-0.412-0.545-0.728-0.964-0.946c-0.419-0.218-0.911-0.327-1.478-0.327
		c-0.979,0-1.764,0.321-2.354,0.964c-0.59,0.644-0.885,1.501-0.885,2.574c0,1.145,0.311,2.038,0.93,2.681
		c0.619,0.644,1.471,0.965,2.557,0.965c0.743,0,1.371-0.188,1.884-0.566c0.514-0.377,0.888-0.92,1.124-1.628h-3.84V21.73h6.582
		v2.813c-0.225,0.755-0.604,1.457-1.142,2.105c-0.536,0.648-1.218,1.174-2.043,1.575c-0.826,0.4-1.758,0.602-2.796,0.602
		c-1.227,0-2.32-0.269-3.282-0.806c-0.961-0.536-1.71-1.282-2.247-2.238c-0.537-0.955-0.805-2.046-0.805-3.273
		c0-1.227,0.268-2.32,0.805-3.281c0.537-0.962,1.283-1.711,2.238-2.247c0.956-0.537,2.047-0.806,3.273-0.806
		c1.486,0,2.739,0.36,3.76,1.079c1.021,0.72,1.695,1.717,2.026,2.99H149.206z"/>
	<path style="fill:#FFFFFF;" d="M158.476,19.227c0.531-0.962,1.271-1.711,2.221-2.247c0.949-0.537,2.026-0.806,3.229-0.806
		c1.474,0,2.736,0.39,3.786,1.168s1.752,1.84,2.105,3.185h-3.326c-0.248-0.519-0.599-0.914-1.053-1.186
		c-0.454-0.271-0.971-0.406-1.549-0.406c-0.932,0-1.687,0.324-2.265,0.973c-0.578,0.649-0.867,1.516-0.867,2.601
		c0,1.086,0.289,1.953,0.867,2.602s1.333,0.973,2.265,0.973c0.578,0,1.095-0.135,1.549-0.406s0.805-0.667,1.053-1.186h3.326
		c-0.354,1.345-1.056,2.403-2.105,3.176s-2.312,1.159-3.786,1.159c-1.203,0-2.28-0.269-3.229-0.806
		c-0.949-0.536-1.689-1.282-2.221-2.238c-0.53-0.955-0.796-2.046-0.796-3.273C157.68,21.282,157.946,20.188,158.476,19.227z"/>
	<path style="fill:#FFFFFF;" d="M174.702,18.74v2.513h4.052v2.336h-4.052v2.725h4.582v2.424h-7.608V16.316h7.608v2.424H174.702z"/>
	<path style="fill:#FFFFFF;" d="M192.359,28.737h-3.025l-5.06-7.661v7.661h-3.026V16.316h3.026l5.06,7.696v-7.696h3.025V28.737z"/>
	<path style="fill:#FFFFFF;" d="M203.489,16.316v2.424h-3.291v9.997h-3.025V18.74h-3.291v-2.424H203.489z"/>
	<path style="fill:#FFFFFF;" d="M208.036,18.74v2.513h4.052v2.336h-4.052v2.725h4.582v2.424h-7.608V16.316h7.608v2.424H208.036z"/>
	<path style="fill:#FFFFFF;" d="M220.917,28.737l-2.584-4.688h-0.725v4.688h-3.026V16.316h5.078c0.979,0,1.813,0.171,2.504,0.514
		c0.69,0.342,1.206,0.811,1.548,1.406s0.514,1.259,0.514,1.99c0,0.826-0.233,1.563-0.699,2.212s-1.153,1.108-2.062,1.38l2.866,4.919
		H220.917z M217.608,21.907h1.875c0.555,0,0.97-0.135,1.247-0.406s0.416-0.655,0.416-1.15c0-0.472-0.139-0.843-0.416-1.114
		s-0.692-0.407-1.247-0.407h-1.875V21.907z"/>
</g>
</svg>
